<svg xmlns="http://www.w3.org/2000/svg"><symbol id="icon_eyes" viewBox="0 0 82 65"><path d="M43.286 32.857c0 8.498-2.428 16.148-6.303 21.648-3.877 5.502-9.138 8.78-14.84 8.78s-10.963-3.278-14.84-8.78C3.428 49.005 1 41.355 1 32.857 1 24.36 3.428 16.71 7.303 11.21c3.877-5.503 9.138-8.781 14.84-8.781 5.701 0 10.963 3.278 14.84 8.78 3.875 5.5 6.303 13.15 6.303 21.648z" stroke-width="2"/><path d="M81 31.429c0 8.497-2.428 16.147-6.303 21.647-3.877 5.502-9.138 8.781-14.84 8.781-5.701 0-10.963-3.279-14.84-8.781-3.875-5.5-6.303-13.15-6.303-21.647 0-8.498 2.428-16.148 6.303-21.648C48.894 4.28 54.156 1 59.857 1c5.702 0 10.963 3.279 14.84 8.781C78.572 15.281 81 22.931 81 31.43z" stroke-width="2"/><ellipse cx="25.571" cy="45.143" rx="8.571" ry="12.143"/><ellipse cx="63.286" cy="45.143" rx="8.571" ry="12.143"/></symbol><symbol id="icon_facebook" viewBox="0 0 20 20"><path d="M10 .042c-5.523 0-10 4.477-10 10 0 4.953 3.605 9.055 8.332 9.85v-7.764H5.92V9.334h2.412v-2.06c0-2.39 1.46-3.693 3.593-3.693 1.021 0 1.899.076 2.154.11v2.498l-1.48.001c-1.159 0-1.383.551-1.383 1.36v1.783h2.767l-.36 2.793h-2.406v7.832C16.163 19.356 20 15.15 20 10.038c0-5.52-4.477-9.996-10-9.996z"/></symbol><symbol id="icon_logo" viewBox="0 0 397 39"><path d="M1.464 32h14.124v-.748l-4.576-.572c-1.32-.176-2.288-1.188-2.288-2.552V7.052L26.896 32h1.76V4.984c0-1.32.924-2.42 2.244-2.596l3.344-.44V1.2h-14.08v.748l4.576.572c1.32.176 2.288 1.188 2.288 2.552V25.4L12.772 5.556C9.824 1.42 6.744 1.2.584 1.2v.748c2.684.396 5.324 1.408 6.468 3.432v22.836c0 1.32-.924 2.42-2.244 2.596l-3.344.44V32zm57.595.704c9.328 0 16.236-6.512 16.236-16.104 0-9.592-6.908-16.06-16.236-16.06s-16.28 6.468-16.28 16.06c0 9.592 6.952 16.104 16.28 16.104zm.044-1.54c-8.096 0-11.66-6.996-11.66-15.576 0-8.008 3.74-13.508 11.572-13.508 7.92 0 11.572 6.864 11.572 15.18 0 8.272-3.344 13.904-11.484 13.904zm39.241-14.036h.792c4.532 12.54 12.276 18.172 16.72 20.944-6.248-8.536-9.46-14.168-12.32-21.34 5.368-.924 8.316-3.432 8.316-7.788 0-5.544-5.016-7.744-13.948-7.744h-13.2v.748l2.816.352c1.32.176 2.288 1.188 2.288 2.552v23.496c0 1.364-.968 2.376-2.288 2.552l-2.816.352V32h14.564v-.748l-2.816-.352c-1.32-.176-2.288-1.188-2.288-2.552v-11.22h4.18zM94.164 2.74h4.84c5.984 0 8.668 2.068 8.668 6.424s-2.992 6.424-9.372 6.424h-4.136V2.74zM123.883 32h14.124c10.912 0 17.908-5.544 17.908-15.312 0-10.252-6.996-15.488-17.908-15.488h-14.124v.748l2.816.352c1.32.176 2.288 1.188 2.288 2.552v23.496c0 1.364-.968 2.376-2.288 2.552l-2.816.352V32zm11.748-1.54c-1.32 0-2.288-.748-2.288-2.112V2.74h4.312c6.688 0 13.596 2.772 13.596 13.948 0 10.34-6.116 13.772-13.596 13.772h-2.024zM165.597 32h14.564v-.748l-2.816-.352c-1.32-.176-2.288-1.188-2.288-2.552V4.852c0-1.364.968-2.376 2.288-2.552l2.816-.352V1.2h-14.564v.748l2.816.352c1.32.176 2.288 1.188 2.288 2.552v23.496c0 1.364-.968 2.376-2.288 2.552l-2.816.352V32zm40.695.66c5.104 0 10.56-1.936 14.124-5.28v-2.332c-3.432 3.212-8.14 4.84-12.804 4.84-6.908 0-12.584-5.016-12.584-13.288 0-8.668 3.96-14.52 11.264-14.52 7.304 0 10.12 5.412 9.152 14.916h1.056l2.64-11.748C216.632 2.388 209.812.54 206.292.54c-9.636 0-16.148 6.468-16.148 16.06 0 9.636 6.556 16.06 16.148 16.06zm56.794-15.532h.792c4.532 12.54 12.276 18.172 16.72 20.944-6.248-8.536-9.46-14.168-12.32-21.34 5.368-.924 8.316-3.432 8.316-7.788 0-5.544-5.016-7.744-13.948-7.744h-13.2v.748l2.816.352c1.32.176 2.288 1.188 2.288 2.552v23.496c0 1.364-.968 2.376-2.288 2.552l-2.816.352V32h14.564v-.748l-2.816-.352c-1.32-.176-2.288-1.188-2.288-2.552v-11.22h4.18zm-4.18-14.388h4.84c5.984 0 8.668 2.068 8.668 6.424s-2.992 6.424-9.372 6.424h-4.136V2.74zm45.702 29.964c9.328 0 16.236-6.512 16.236-16.104 0-9.592-6.908-16.06-16.236-16.06s-16.28 6.468-16.28 16.06c0 9.592 6.952 16.104 16.28 16.104zm.044-1.54c-8.096 0-11.66-6.996-11.66-15.576 0-8.008 3.74-13.508 11.572-13.508 7.92 0 11.572 6.864 11.572 15.18 0 8.272-3.344 13.904-11.484 13.904zm40.233 1.496c6.6 0 11.264-3.344 11.264-8.184 0-11.836-18.216-10.428-18.216-16.984 0-3.124 3.168-5.412 7.876-5.412 5.412 0 7.436 2.904 7.964 10.56h1.012l.44-9.988C352.629 1.508 349.329.54 345.809.54c-6.864 0-11.132 3.08-11.132 7.392 0 11.484 18.304 9.68 18.304 17.204 0 3.52-3.608 5.984-7.656 5.984-5.676 0-7.964-3.036-9.02-11.748h-1.012l-.88 10.428c3.036 1.672 5.852 2.86 10.472 2.86zm22.27-.66h27.94l1.319-10.384h-.747c-2.684 6.952-4.532 8.844-8.448 8.844h-8.317c-1.32 0-2.287-.748-2.287-2.112v-11.22h10.339c1.188 0 2.376.836 2.464 1.98l.484 5.148h.749V8.9h-.749l-.484 4.708c-.132 1.188-1.276 1.98-2.464 1.98h-10.339V2.74h9.724c3.256 0 6.071 1.54 7.832 8.888h.747L394.039 1.2h-26.884v.748l2.815.352c1.32.176 2.289 1.188 2.289 2.552v23.496c0 1.364-.969 2.376-2.289 2.552l-2.815.352V32z"/></symbol><symbol id="icon_twitter" viewBox="0 0 20 16"><path d="M20 .009a9.991 9.991 0 01-2.855 1.364A4.087 4.087 0 0015.061.12a4.148 4.148 0 00-2.44.144 4.06 4.06 0 00-1.918 1.488A3.94 3.94 0 0010 4.048v.892a9.848 9.848 0 01-4.608-1.012A9.64 9.64 0 011.818.901s-3.636 8.025 4.546 11.591A10.734 10.734 0 010 14.277c8.182 4.458 18.182 0 18.182-10.254a3.9 3.9 0 00-.073-.74A6.852 6.852 0 0020 .008z"/></symbol><symbol id="icon_whatsup" viewBox="0 0 20 20"><path d="M17.077 2.928A9.927 9.927 0 0010.011 0C4.505 0 .024 4.479.022 9.985a9.962 9.962 0 001.333 4.992L0 20l5.233-1.237a9.98 9.98 0 004.773 1.216h.004c5.505 0 9.986-4.48 9.989-9.985a9.922 9.922 0 00-2.922-7.066zm-2.179 10.626c-.208.583-1.227 1.145-1.685 1.186-.458.042-.887.207-2.995-.624-2.537-1-4.139-3.601-4.263-3.767-.125-.167-1.019-1.353-1.019-2.581s.645-1.832.874-2.081a.916.916 0 01.666-.312c.166 0 .333 0 .478.006.178.007.375.016.562.431.222.494.707 1.728.769 1.853.062.125.104.271.021.437-.083.166-.125.27-.249.416-.125.146-.262.325-.374.437-.125.124-.255.26-.11.509.146.25.646 1.067 1.388 1.728.954.85 1.757 1.113 2.007 1.239.25.125.395.104.541-.063.146-.166.624-.728.79-.978.166-.25.333-.208.562-.125.229.083 1.456.687 1.705.812.25.125.416.187.478.291.062.103.062.603-.146 1.186z"/></symbol></svg>